<?xml version="1.0" encoding="utf-8"?>
<svg viewBox="0 0 500 500" xmlns="http://www.w3.org/2000/svg">
  <defs>
    <linearGradient gradientUnits="userSpaceOnUse" x1="250" y1="6.066" x2="250" y2="276.695" id="gradient-0" gradientTransform="matrix(0.935803, -0.275897, 0.27996, 0.949584, -61.414379, 82.979301)">
      <stop offset="0" style="stop-color: rgb(0, 255, 78);"/>
      <stop offset="1" style="stop-color: rgb(0, 224, 112);"/>
    </linearGradient>
    <radialGradient gradientUnits="userSpaceOnUse" cx="271.848" cy="294.988" r="92.48" id="gradient-1" gradientTransform="matrix(2.381872, -0.011516, 0.011516, 2.381872, -384.03684, -415.301028)">
      <stop offset="0" style="stop-color: rgb(100% 100% 100%)"/>
      <stop offset="1" style="stop-color: rgb(213, 213, 213);"/>
    </radialGradient>
    <linearGradient gradientUnits="userSpaceOnUse" x1="250" y1="12.717" x2="250" y2="488.817" id="gradient-2" gradientTransform="matrix(0.577644, -0.81629, 0.53852, 0.381081, -42.814955, 439.277034)">
      <stop offset="0" style="stop-color: rgb(36.078% 29.02% 94.902%)"/>
      <stop offset="1" style="stop-color: rgb(171, 62, 213);"/>
    </linearGradient>
  </defs>
  <rect x="92.555" y="101.875" width="314.89" height="119.167" style="fill: rgb(255, 255, 255);"/>
  <path d="M 250 490.817 C 126.59 490.817 25.114 396.909 13.133 276.653 L 486.867 276.653 C 474.886 396.909 373.41 490.817 250 490.817 Z" style="stroke-width: 21px; stroke: url('#gradient-2'); fill: rgba(255, 255, 255, 0.33);"/>
  <path d="M 383.261 20.313 L 385.36 18.493 C 390.854 13.755 396.936 12.176 403.811 12.884 C 410.702 13.299 416.432 15.952 421.17 21.593 C 426.207 26.953 428.066 32.933 427.696 39.844 C 427.56 46.444 425.494 52.016 420.666 56.759 L 404.369 71.319 L 407.612 74.238 L 408.426 74.973 L 409.241 75.705 C 458.139 119.441 488.053 181.952 488.053 252.657 C 488.053 262.614 487.656 269.031 486.856 276.75 L 13.144 276.75 C 12.344 269.031 11.947 262.614 11.947 252.657 C 11.947 181.952 41.864 119.435 90.764 75.7 L 95.635 71.318 L 81.519 58.83 L 80.055 57.442 C 74.702 52.552 72.445 46.724 72.302 39.797 C 71.934 32.89 73.86 26.879 78.899 21.515 C 83.632 15.878 89.374 13.293 96.269 12.877 C 103.141 12.169 109.158 13.765 114.652 18.503 L 115.282 19.027 L 140.344 41.274 L 140.935 40.979 L 141.525 40.684 L 143.296 39.799 L 143.887 39.503 C 176.019 23.396 211.634 14.604 250 14.604 C 288.366 14.604 323.981 23.394 356.113 39.501 L 359.656 41.274 L 383.261 20.313 Z M 132.32 133.84 C 125.941 140.219 121.475 150.219 121.475 160.021 C 121.475 169.823 125.941 179.823 132.32 186.202 C 138.699 192.581 148.699 197.047 158.501 197.047 C 168.303 197.047 178.303 192.581 184.682 186.202 C 191.06 179.823 195.527 169.823 195.527 160.021 C 195.527 150.219 191.06 140.219 184.682 133.84 C 178.303 127.462 168.303 122.995 158.501 122.995 C 148.699 122.995 138.699 127.462 132.32 133.84 Z M 315.318 133.84 C 308.94 140.219 304.473 150.219 304.473 160.021 C 304.473 169.823 308.94 179.823 315.318 186.202 C 321.697 192.581 331.697 197.047 341.499 197.047 C 351.301 197.047 361.301 192.581 367.68 186.202 C 374.059 179.823 378.525 169.823 378.525 160.021 C 378.525 150.219 374.059 140.219 367.68 133.84 C 361.301 127.462 351.301 122.995 341.499 122.995 C 331.697 122.995 321.697 127.462 315.318 133.84 Z" style="stroke: rgb(0, 0, 0); stroke-width: 21px; fill: url('#gradient-0');"/>
  <path d="M 250.844 475.768 L 250 213.106 L 434.96 398.069 L 350.504 397.225 L 391.616 469.282 L 354.725 492.661 L 311.652 408.201 L 250.844 475.768 Z" style="stroke-width: 18px; stroke: rgb(0, 0, 0); fill: url('#gradient-1');"/>
</svg>